<?xml version="1.0" encoding="UTF-8" standalone="no"?>
<svg
   version="1.1"
   id="svg4259"
   viewBox="0 0 220.41701 220.25599"
   height="220.256"
   width="220.41701"
   xmlns="http://www.w3.org/2000/svg"
   xmlns:svg="http://www.w3.org/2000/svg"
   xmlns:rdf="http://www.w3.org/1999/02/22-rdf-syntax-ns#"
   xmlns:cc="http://creativecommons.org/ns#"
   xmlns:dc="http://purl.org/dc/elements/1.1/">
  <defs
     id="defs4261" />
  <metadata
     id="metadata4264">
    <rdf:RDF>
      <cc:Work
         rdf:about="">
        <dc:format>image/svg+xml</dc:format>
        <dc:type
           rdf:resource="http://purl.org/dc/dcmitype/StillImage" />
      </cc:Work>
    </rdf:RDF>
  </metadata>
  <path
     id="refine_final"
     class="st0"
     d="m 86.16147,48.999904 46.92657,31.517149 c 9.72343,6.530577 19.67771,12.909917 36.82991,12.909917 26.69981,0 50.48049,-19.403463 50.48049,-19.403463 L 110.18329,0 c 0,0 -12.02703,13.223237 -49.772,36.732432 C 20.780329,61.417256 0,68.585326 0,68.585326 l 142.24783,95.614214 -9.35135,6.12524 -45.63446,-30.64917 c -9.67576,-6.49849 -19.66829,-12.90352 -36.82225,-12.90352 -26.6987,0 -50.42964,19.45573 -50.42964,19.45573 l 110.22138,74.02775 c 0,0 12.0288,-13.22381 49.77376,-36.73293 39.62984,-24.68425 60.41193,-31.85289 60.41193,-31.85289 L 76.821539,55.133044 Z"
     style="fill:white;stroke-width:7.98271" />
</svg>
